<svg id="Layer_2" xmlns="http://www.w3.org/2000/svg" width="591.1" height="706.4" viewBox="0 0 591.1 706.4"><style>.st0{fill:#333333;} .st1{fill:#FFFFFF;} .st2{fill:#ED1C24;} .st3{fill:#FCEE21;} .st4{fill:none;} .st5{font-family:&apos;Helvetica-Bold&apos;;} .st6{font-size:22px;}</style><g id="body"><circle class="st0" cx="545.6" cy="338.8" r="7.7"/><path class="st0" d="M553.4 389.3h-1.5l-6.2-19.2-6.2 19.2H538v-40.4h15.4v40.4z"/></g><g id="arm-l"><path class="st0" d="M553.4 353.4c-1.3 0-2.3-1-2.3-2.3s1-2.3 2.3-2.3l19.2-.1c.2 0 .2.1.2.2 0 .2 0 .2-3.1.9-1.6.4-3.8.9-6.6 1.5-4.8 1-9.6 2.1-9.7 2.1z"/><path class="st1" d="M572.6 348.9c1.2 0-19.2 4.3-19.2 4.3-1.2 0-2.1-1-2.1-2.1 0-1.2 1-2.1 2.1-2.1l19.2-.1m0-.3l-19.2.1c-1.4 0-2.5 1.1-2.5 2.5s1.1 2.5 2.5 2.5h.1s4.9-1 9.7-2.1c2.8-.6 5-1.1 6.6-1.5 1-.2 1.7-.4 2.2-.5.3-.1.5-.1.6-.2.2-.1.5-.1.4-.4 0-.3-.1-.4-.4-.4z"/><path class="st2" d="M589.7 368.4v-19.5h-17.1l17.1 19.5z"/><path class="st3" d="M572.6 368.3h17.1l-17-19.5-.1 19.5z"/></g><g id="arm-r"><path class="st0" d="M537.9 353.4c-.1 0-4.9-1-9.7-2.1-2.8-.6-5-1.1-6.6-1.5-3.1-.7-3.1-.8-3.1-.9 0 0 0-.2.2-.2l19.2.1c1.3 0 2.3 1 2.3 2.3s-1 2.3-2.3 2.3z"/><path class="st1" d="M518.7 348.9l19.2.1c1.2 0 2.1 1 2.1 2.1 0 1.2-1 2.1-2.1 2.1 0 0-20.4-4.3-19.2-4.3m0-.3c-.3 0-.4.2-.4.3 0 .3.2.4.4.4.1 0 .3.1.6.2.5.1 1.2.3 2.2.5 1.6.4 3.8.9 6.6 1.5 4.8 1 9.6 2.1 9.7 2.1h.1c1.4 0 2.5-1.1 2.5-2.5s-1.1-2.5-2.5-2.5h-19.2z"/><path class="st2" d="M501.7 368.4v-19.5h17.1l-17.1 19.5z"/><path class="st3" d="M518.7 368.3h-17.1l17-19.5.1 19.5z"/></g><g id="body_1_"><circle class="st0" cx="45.6" cy="63.8" r="7.7"/><path class="st0" d="M53.4 114.3h-1.5L45.6 95l-6.2 19.2h-1.5V73.9h15.4v40.4z"/></g><g id="arm-l_1_"><path class="st0" d="M50.8 76.2c0-1.3 1-2.3 2.3-2.3 1.3 0 2.3 1 2.3 2.3l.1 19.2c0 .2-.1.2-.2.2-.2 0-.2 0-.9-3.1-.4-1.6-.9-3.8-1.5-6.6-1-4.8-2.1-9.6-2.1-9.7z"/><path class="st1" d="M55.3 95.5c0 1.2-4.3-19.2-4.3-19.2 0-1.2 1-2.1 2.1-2.1 1.2 0 2.1 1 2.1 2.1l.1 19.2m.3 0l-.1-19.2c0-1.4-1.1-2.5-2.5-2.5s-2.5 1.1-2.5 2.5v.1s1 4.9 2.1 9.7c.6 2.8 1.1 5 1.5 6.6.2 1 .4 1.7.5 2.2.1.3.1.5.2.6.1.2.1.5.4.4.2-.1.4-.2.4-.4z"/><path class="st2" d="M35.8 112.5h19.5V95.4l-19.5 17.1z"/><path class="st3" d="M35.9 95.4v17.1l19.5-17-19.5-.1z"/></g><g id="arm-r_1_"><path class="st0" d="M39.7 77.4c-.1 0-4.2 2.7-8.3 5.4-2.4 1.5-4.3 2.8-5.7 3.7-2.7 1.7-2.8 1.7-2.9 1.5 0 0-.1-.1 0-.3l13.7-13.6c.9-.9 2.3-.9 3.2 0 .9 1 .9 2.4 0 3.3z"/><path class="st1" d="M22.9 87.9l13.7-13.6c.8-.8 2.2-.8 3 0s.8 2.2 0 3c0 0-17.5 11.4-16.7 10.6m-.2-.3c-.2.2-.1.4-.1.5.2.2.4.1.6 0 .1-.1.3-.2.6-.3.4-.3 1.1-.7 1.9-1.2 1.4-.9 3.3-2.1 5.7-3.7 4.1-2.6 8.2-5.3 8.3-5.4 1-1 1-2.5 0-3.5s-2.5-1-3.5 0L22.7 87.6z"/><path class="st2" d="M24.7 113.7L10.9 100 23 87.9l1.7 25.8z"/><path class="st3" d="M36.7 101.6l-12 12.1L23 87.9l13.7 13.7z"/></g><g id="body_2_"><circle class="st0" cx="145.6" cy="63.8" r="7.7"/><path class="st0" d="M153.3 114.3h-1.5L145.6 95l-6.2 19.2h-1.5V73.9h15.4v40.4z"/></g><g id="arm-l_2_"><path class="st0" d="M150.8 75.7c0-1.3 1-2.3 2.3-2.3s2.3 1 2.3 2.3l.1 19.2c0 .2-.1.2-.2.2-.2 0-.2 0-.9-3.1-.4-1.6-.9-3.8-1.5-6.6-1-4.8-2.1-9.6-2.1-9.7z"/><path class="st1" d="M155.3 95c0 1.2-4.3-19.2-4.3-19.2 0-1.2 1-2.1 2.1-2.1s2.1 1 2.1 2.1l.1 19.2m.3 0l-.1-19.2c0-1.4-1.1-2.5-2.5-2.5s-2.5 1.1-2.5 2.5v.1s1 4.9 2.1 9.7c.6 2.8 1.1 5 1.5 6.6.2 1 .4 1.7.5 2.2.1.3.1.5.2.6.1.2.1.5.4.4.2-.1.4-.2.4-.4z"/><path class="st2" d="M135.8 112h19.5V94.9L135.8 112z"/><path class="st3" d="M135.9 94.9V112l19.5-17-19.5-.1z"/></g><g id="arm-r_2_"><path class="st0" d="M137.9 78.4c-.1 0-4.9-1-9.7-2.1-2.8-.6-5-1.1-6.6-1.5-3.1-.7-3.1-.8-3.1-.9 0 0 0-.2.2-.2l19.2.1c1.3 0 2.3 1 2.3 2.3 0 1.3-1 2.3-2.3 2.3z"/><path class="st1" d="M118.7 73.9l19.2.1c1.2 0 2.1 1 2.1 2.1 0 1.2-1 2.1-2.1 2.1 0 0-20.4-4.3-19.2-4.3m0-.3c-.3 0-.4.2-.4.3 0 .3.2.4.4.4.1 0 .3.1.6.2.5.1 1.2.3 2.2.5 1.6.4 3.8.9 6.6 1.5 4.8 1 9.6 2.1 9.7 2.1h.1c1.4 0 2.5-1.1 2.5-2.5s-1.1-2.5-2.5-2.5h-19.2z"/><path class="st2" d="M101.6 93.4V73.9h17.1l-17.1 19.5z"/><path class="st3" d="M118.7 93.3h-17.1l17-19.5.1 19.5z"/></g><g id="body_3_"><circle class="st0" cx="245.6" cy="63.8" r="7.7"/><path class="st0" d="M253.3 114.3h-1.5L245.6 95l-6.2 19.2h-1.5V73.9h15.4v40.4z"/></g><g id="arm-l_3_"><path class="st0" d="M250.8 76.2c0-1.3 1-2.3 2.3-2.3s2.3 1 2.3 2.3l.1 19.2c0 .2-.1.2-.2.2-.2 0-.2 0-.9-3.1-.4-1.6-.9-3.8-1.5-6.6-1-4.8-2.1-9.6-2.1-9.7z"/><path class="st1" d="M255.3 95.5c0 1.2-4.3-19.2-4.3-19.2 0-1.2 1-2.1 2.1-2.1s2.1 1 2.1 2.1l.1 19.2m.3 0l-.1-19.2c0-1.4-1.1-2.5-2.5-2.5s-2.5 1.1-2.5 2.5v.1s1 4.9 2.1 9.7c.6 2.8 1.1 5 1.5 6.6.2 1 .4 1.7.5 2.2.1.3.1.5.2.6.1.2.1.5.4.4.2-.1.4-.2.4-.4z"/><path class="st2" d="M235.8 112.5h19.5V95.4l-19.5 17.1z"/><path class="st3" d="M235.9 95.4v17.1l19.5-17-19.5-.1z"/></g><g id="arm-r_3_"><path class="st0" d="M236.3 77.9c0-.1-2.7-4.2-5.4-8.3-1.5-2.4-2.8-4.3-3.7-5.7-1.7-2.7-1.7-2.8-1.5-2.9 0 0 .1-.1.3 0l13.6 13.7c.9.9.9 2.3 0 3.2-.9.9-2.4.9-3.3 0z"/><path class="st1" d="M225.9 61.1l13.6 13.7c.8.8.8 2.2 0 3s-2.2.8-3 0c0 0-11.4-17.5-10.6-16.7m.2-.2c-.2-.2-.4-.1-.5-.1-.2.2-.1.4 0 .6.1.1.2.3.3.6.3.4.7 1.1 1.2 1.9.9 1.4 2.1 3.3 3.7 5.7 2.6 4.1 5.3 8.2 5.4 8.3 1 1 2.5 1 3.5 0s1-2.5 0-3.5l-13.6-13.5z"/><path class="st2" d="M200.1 62.9l13.7-13.8 12.1 12.1-25.8 1.7z"/><path class="st3" d="M212.2 74.9l-12.1-12 25.8-1.7-13.7 13.7z"/></g><g id="body_4_"><circle class="st0" cx="345.6" cy="63.8" r="7.7"/><path class="st0" d="M353.3 114.3h-1.5L345.6 95l-6.2 19.2h-1.5V73.9h15.4v40.4z"/></g><g id="arm-l_4_"><path class="st0" d="M351.1 76c0-1.3 1-2.3 2.3-2.3s2.3 1 2.3 2.3l.1 19.2c0 .2-.1.2-.2.2-.2 0-.2 0-.9-3.1-.4-1.6-.9-3.8-1.5-6.6-1.1-4.8-2.1-9.7-2.1-9.7z"/><path class="st1" d="M355.5 95.2c0 1.2-4.3-19.2-4.3-19.2 0-1.2 1-2.1 2.1-2.1s2.1 1 2.1 2.1l.1 19.2m.4 0l-.1-19.2c0-1.4-1.1-2.5-2.5-2.5s-2.5 1.1-2.5 2.5c0 0 1 4.9 2.1 9.7.6 2.8 1.1 5 1.5 6.6.2 1 .4 1.7.5 2.2.1.3.1.5.2.6.1.2.1.5.4.4.2.1.4 0 .4-.3z"/><path class="st2" d="M336.1 112.2h19.5V95.1l-19.5 17.1z"/><path class="st3" d="M336.1 95.2v17.1l19.5-17-19.5-.1z"/></g><g id="arm-r_4_"><path class="st0" d="M335.3 76.2c0-.1 1-4.9 2.1-9.7.6-2.8 1.1-5 1.5-6.6.7-3.1.8-3.1.9-3.1 0 0 .2 0 .2.2l-.1 19.2c0 1.3-1 2.3-2.3 2.3s-2.3-1-2.3-2.3z"/><path class="st1" d="M339.8 57l-.1 19.2c0 1.2-1 2.1-2.1 2.1s-2.1-1-2.1-2.1c0 0 4.3-20.4 4.3-19.2m.3 0c0-.3-.2-.4-.3-.4-.3 0-.4.2-.4.4 0 .1-.1.3-.2.6-.1.5-.3 1.2-.5 2.2-.4 1.6-.9 3.8-1.5 6.6-1 4.8-2.1 9.6-2.1 9.7v.1c0 1.4 1.1 2.5 2.5 2.5s2.5-1.1 2.5-2.5V57z"/><path class="st2" d="M320.3 40h19.5v17.1L320.3 40z"/><path class="st3" d="M320.4 57V39.9l19.5 17-19.5.1z"/></g><g id="body_5_"><circle class="st0" cx="445.6" cy="63.8" r="7.7"/><path class="st0" d="M453.3 114.3h-1.5L445.6 95l-6.2 19.2h-1.5V73.9h15.4v40.4z"/></g><g id="arm-l_5_"><path class="st0" d="M455.1 77.7c-.9.9-2.3.9-3.2 0s-.9-2.3 0-3.2l13.6-13.7c.1-.1.2-.1.3 0 .2.1.2.1-1.5 2.9-.9 1.4-2.1 3.3-3.7 5.7-2.8 4.1-5.5 8.2-5.5 8.3z"/><path class="st1" d="M465.5 60.9c.8-.8-10.6 16.7-10.6 16.7-.8.8-2.2.8-3 0-.8-.8-.8-2.2 0-3l13.6-13.7m-.2-.2l-13.6 13.7c-1 1-1 2.5 0 3.5s2.5 1 3.5 0c0 0 2.7-4.2 5.4-8.3 1.5-2.4 2.8-4.3 3.7-5.7.5-.8.9-1.5 1.2-1.9.2-.2.2-.4.3-.6.1-.2.2-.4 0-.6-.1-.2-.3-.3-.5-.1z"/><path class="st2" d="M491.3 62.7l-13.7-13.8L465.5 61l25.8 1.7z"/><path class="st3" d="M479.2 74.7l12.1-12-25.8-1.7 13.7 13.7z"/></g><g id="arm-r_5_"><path class="st0" d="M440.1 75.8c0 .1-1 4.9-2.1 9.7-.6 2.8-1.1 5-1.5 6.6-.7 3.1-.8 3.1-.9 3.1 0 0-.2 0-.2-.2l.1-19.2c0-1.3 1-2.3 2.3-2.3s2.3 1 2.3 2.3z"/><path class="st1" d="M435.6 95l.1-19.2c0-1.2 1-2.1 2.1-2.1 1.2 0 2.1 1 2.1 2.1 0 0-4.3 20.4-4.3 19.2m-.3 0c0 .3.2.4.3.4.3 0 .4-.2.4-.4 0-.1.1-.3.2-.6.1-.5.3-1.2.5-2.2.4-1.6.9-3.8 1.5-6.6 1-4.8 2.1-9.6 2.1-9.7v-.1c0-1.4-1.1-2.5-2.5-2.5s-2.5 1.1-2.5 2.5V95z"/><path class="st2" d="M455.1 112.1h-19.5V95l19.5 17.1z"/><path class="st3" d="M455 95v17.1l-19.5-17L455 95z"/></g><g id="body_6_"><circle class="st0" cx="545.6" cy="63.8" r="7.7"/><path class="st0" d="M553.3 114.3h-1.5L545.6 95l-6.2 19.2h-1.5V73.9h15.4v40.4z"/></g><g id="arm-l_6_"><path class="st0" d="M553.4 78.4c-1.3 0-2.3-1-2.3-2.3s1-2.3 2.3-2.3l19.2-.1c.2 0 .2.1.2.2 0 .2 0 .2-3.1.9-1.6.4-3.8.9-6.6 1.5-4.8 1-9.6 2.1-9.7 2.1z"/><path class="st1" d="M572.6 73.9c1.2 0-19.2 4.3-19.2 4.3-1.2 0-2.1-1-2.1-2.1s1-2.1 2.1-2.1l19.2-.1m0-.3l-19.2.1c-1.4 0-2.5 1.1-2.5 2.5s1.1 2.5 2.5 2.5h.1s4.9-1 9.7-2.1c2.8-.6 5-1.1 6.6-1.5 1-.2 1.7-.4 2.2-.5.3-.1.5-.1.6-.2.2-.1.5-.1.4-.4 0-.3-.1-.4-.4-.4z"/><path class="st2" d="M589.7 93.4V73.9h-17.1l17.1 19.5z"/><path class="st3" d="M572.6 93.3h17.1l-17-19.5-.1 19.5z"/></g><g id="arm-r_6_"><path class="st0" d="M540.1 75.8c0 .1-1 4.9-2.1 9.7-.6 2.8-1.1 5-1.5 6.6-.7 3.1-.8 3.1-.9 3.1 0 0-.2 0-.2-.2l.1-19.2c0-1.3 1-2.3 2.3-2.3 1.2 0 2.3 1 2.3 2.3z"/><path class="st1" d="M535.6 95l.1-19.2c0-1.2 1-2.1 2.1-2.1s2.1 1 2.1 2.1c0 0-4.3 20.4-4.3 19.2m-.3 0c0 .3.2.4.3.4.3 0 .4-.2.4-.4 0-.1.1-.3.2-.6.1-.5.3-1.2.5-2.2.4-1.6.9-3.8 1.5-6.6 1-4.8 2.1-9.6 2.1-9.7v-.1c0-1.4-1.1-2.5-2.5-2.5s-2.5 1.1-2.5 2.5V95z"/><path class="st2" d="M555.1 112.1h-19.5V95l19.5 17.1z"/><path class="st3" d="M555 95v17.1l-19.5-17L555 95z"/></g><g id="body_12_"><circle class="st0" cx="45.6" cy="200.8" r="7.7"/><path class="st0" d="M53.4 251.3h-1.5L45.6 232l-6.2 19.2h-1.5v-40.4h15.4v40.5z"/></g><g id="arm-l_12_"><path class="st0" d="M51.7 214.8c-.9-.9-.9-2.3 0-3.2.9-.9 2.3-.9 3.2 0l13.7 13.6c.1.1.1.2 0 .3-.1.2-.1.2-2.9-1.5-1.4-.9-3.3-2.1-5.7-3.7-4.1-2.7-8.3-5.4-8.3-5.5z"/><path class="st1" d="M68.4 225.3c.8.8-16.7-10.6-16.7-10.6-.8-.8-.8-2.2 0-3 .8-.8 2.2-.8 3 0l13.7 13.6m.3-.3L55 211.5c-1-1-2.5-1-3.5 0s-1 2.5 0 3.5c0 0 4.2 2.7 8.3 5.4 2.4 1.5 4.3 2.8 5.7 3.7.8.5 1.5.9 1.9 1.2.2.2.4.2.6.3.2.1.4.2.6 0 .2-.2.3-.4.1-.6z"/><path class="st2" d="M66.7 251.1l13.8-13.7-12.1-12.1-1.7 25.8z"/><path class="st3" d="M54.7 239l12 12.1 1.7-25.8L54.7 239z"/></g><g id="arm-r_12_"><path class="st0" d="M40.8 212.5c0 .1-1 4.9-2.1 9.7-.6 2.8-1.1 5-1.5 6.6-.7 3.1-.8 3.1-.9 3.1 0 0-.2 0-.2-.2l.1-19.2c0-1.3 1-2.3 2.3-2.3 1.3 0 2.3 1 2.3 2.3z"/><path class="st1" d="M36.3 231.7l.1-19.2c0-1.2 1-2.1 2.1-2.1 1.2 0 2.1 1 2.1 2.1 0 0-4.3 20.4-4.3 19.2m-.3 0c0 .3.2.4.3.4.3 0 .4-.2.4-.4 0-.1.1-.3.2-.6.1-.5.3-1.2.5-2.2.4-1.6.9-3.8 1.5-6.6 1-4.8 2.1-9.6 2.1-9.7v-.1c0-1.4-1.1-2.5-2.5-2.5s-2.5 1.1-2.5 2.5v19.2z"/><path class="st2" d="M55.8 248.8H36.3v-17.1l19.5 17.1z"/><path class="st3" d="M55.8 231.7v17.1l-19.5-17 19.5-.1z"/></g><g id="body_11_"><circle class="st0" cx="145.6" cy="200.8" r="7.7"/><path class="st0" d="M153.3 251.3h-1.5l-6.2-19.2-6.2 19.2h-1.5v-40.4h15.4v40.4z"/></g><g id="arm-l_11_"><path class="st0" d="M154.5 214.6s-4.2 2.7-8.3 5.4c-2.4 1.5-4.3 2.8-5.7 3.7-2.7 1.7-2.7 1.7-2.9 1.5 0 0-.1-.1 0-.3l13.7-13.6c.9-.9 2.3-.9 3.2 0s.9 2.4 0 3.3z"/><path class="st1" d="M137.7 225l13.7-13.6c.8-.8 2.2-.8 3 0 .8.8.8 2.2 0 3 0 0-17.5 11.4-16.7 10.6m-.2-.2c-.2.2-.1.4 0 .5.2.2.4.1.6 0 .1-.1.3-.2.6-.3.5-.3 1.1-.7 1.9-1.2 1.4-.9 3.3-2.1 5.7-3.7 4.1-2.6 8.2-5.3 8.3-5.4 1-1 1-2.5 0-3.5s-2.5-1-3.5 0l-13.6 13.6z"/><path class="st2" d="M137.7 225l-12.1 12.1 13.8 13.7-1.7-25.8z"/><path class="st3" d="M137.7 225l1.7 25.8 12-12.1-13.7-13.7z"/></g><g id="arm-r_11_"><path class="st0" d="M137.9 215.4c-.1 0-4.9-1-9.7-2.1-2.8-.6-5-1.1-6.6-1.5-3.1-.7-3.1-.8-3.1-.9 0 0 0-.2.2-.2l19.2.1c1.3 0 2.3 1 2.3 2.3s-1 2.3-2.3 2.3z"/><path class="st1" d="M118.7 210.9l19.2.1c1.2 0 2.1 1 2.1 2.1s-1 2.1-2.1 2.1c0 0-20.4-4.3-19.2-4.3m0-.3c-.3 0-.4.2-.4.3 0 .3.2.4.4.4.1 0 .3.1.6.2.5.1 1.2.3 2.2.5 1.6.4 3.8.9 6.6 1.5 4.8 1 9.6 2.1 9.7 2.1h.1c1.4 0 2.5-1.1 2.5-2.5s-1.1-2.5-2.5-2.5h-19.2z"/><path class="st2" d="M101.6 230.4v-19.5h17.1l-17.1 19.5z"/><path class="st3" d="M118.7 230.3h-17.1l17-19.5.1 19.5z"/></g><g id="body_10_"><circle class="st0" cx="245.6" cy="200.8" r="7.7"/><path class="st0" d="M253.3 251.3h-1.5l-6.2-19.2-6.2 19.2h-1.5v-40.4h15.4v40.4z"/></g><g id="arm-l_10_"><path class="st0" d="M250.9 214.8s-2.7-4.2-5.4-8.3c-1.5-2.4-2.8-4.3-3.7-5.7-1.7-2.7-1.7-2.7-1.5-2.9 0 0 .1-.1.3 0l13.6 13.7c.9.9.9 2.3 0 3.2-.9.9-2.4.9-3.3 0z"/><path class="st1" d="M240.5 198.1l13.6 13.7c.8.8.8 2.2 0 3s-2.2.8-3 0c0-.1-11.4-17.6-10.6-16.7m.2-.3c-.2-.2-.4-.1-.5 0-.2.2-.1.4 0 .6.1.1.2.3.3.6.3.5.7 1.1 1.2 1.9.9 1.4 2.1 3.3 3.7 5.7 2.6 4.1 5.3 8.2 5.4 8.3 1 1 2.5 1 3.5 0s1-2.5 0-3.5l-13.6-13.6z"/><path class="st2" d="M240.5 198.1L228.4 186l-13.7 13.8 25.8-1.7z"/><path class="st3" d="M240.5 198.1l-25.8 1.7 12.1 12 13.7-13.7z"/></g><g id="arm-r_10_"><path class="st0" d="M239.5 214.5c-.1 0-4.2 2.7-8.3 5.4-2.4 1.5-4.3 2.8-5.7 3.7-2.7 1.7-2.8 1.7-2.9 1.5 0 0-.1-.1 0-.3l13.7-13.6c.9-.9 2.3-.9 3.2 0s.9 2.4 0 3.3z"/><path class="st1" d="M222.8 225l13.7-13.6c.8-.8 2.2-.8 3 0s.8 2.2 0 3c-.1 0-17.6 11.4-16.7 10.6m-.3-.3c-.2.2-.1.4-.1.5.2.2.4.1.6 0 .1-.1.3-.2.6-.3.4-.3 1.1-.7 1.9-1.2 1.4-.9 3.3-2.1 5.7-3.7 4.1-2.6 8.2-5.3 8.3-5.4 1-1 1-2.5 0-3.5s-2.5-1-3.5 0l-13.5 13.6z"/><path class="st2" d="M224.5 250.8L210.7 237l12.1-12.1 1.7 25.9z"/><path class="st3" d="M236.5 238.7l-12 12.1-1.7-25.8 13.7 13.7z"/></g><g id="body_9_"><circle class="st0" cx="345.6" cy="200.8" r="7.7"/><path class="st0" d="M353.3 251.3h-1.5l-6.2-19.2-6.2 19.2h-1.5v-40.4h15.4v40.4z"/></g><g id="arm-l_9_"><path class="st0" d="M353.4 215.4c-1.3 0-2.3-1-2.3-2.3 0-1.3 1-2.3 2.3-2.3l19.2-.1c.2 0 .2.1.2.2 0 .2 0 .2-3.1.9-1.6.4-3.8.9-6.6 1.5-4.8 1-9.6 2.1-9.7 2.1z"/><path class="st1" d="M372.6 210.9c1.2 0-19.2 4.3-19.2 4.3-1.2 0-2.1-1-2.1-2.1 0-1.2 1-2.1 2.1-2.1l19.2-.1m0-.3l-19.2.1c-1.4 0-2.5 1.1-2.5 2.5s1.1 2.5 2.5 2.5h.1s4.9-1 9.7-2.1c2.8-.6 5-1.1 6.6-1.5 1-.2 1.7-.4 2.2-.5.3-.1.5-.1.6-.2.2-.1.5-.1.4-.4 0-.3-.1-.4-.4-.4z"/><path class="st2" d="M389.7 230.4v-19.5h-17.1l17.1 19.5z"/><path class="st3" d="M372.6 230.3h17.1l-17-19.5-.1 19.5z"/></g><g id="arm-r_9_"><path class="st0" d="M335.3 213.2c0-.1 1-4.9 2.1-9.7.6-2.8 1.1-5 1.5-6.6.7-3.1.8-3.1.9-3.1 0 0 .2 0 .2.2l-.1 19.2c0 1.3-1 2.3-2.3 2.3s-2.3-1-2.3-2.3z"/><path class="st1" d="M339.8 194l-.1 19.2c0 1.2-1 2.1-2.1 2.1s-2.1-1-2.1-2.1c0 0 4.3-20.4 4.3-19.2m.3 0c0-.3-.2-.4-.3-.4-.3 0-.4.2-.4.4 0 .1-.1.3-.2.6-.1.5-.3 1.2-.5 2.2-.4 1.6-.9 3.8-1.5 6.6-1 4.8-2.1 9.6-2.1 9.7v.1c0 1.4 1.1 2.5 2.5 2.5s2.5-1.1 2.5-2.5V194z"/><path class="st2" d="M320.3 177h19.5v17.1L320.3 177z"/><path class="st3" d="M320.4 194v-17.1l19.5 17-19.5.1z"/></g><g id="body_8_"><circle class="st0" cx="445.6" cy="200.8" r="7.7"/><path class="st0" d="M453.3 251.3h-1.5l-6.2-19.2-6.2 19.2h-1.5v-40.4h15.4v40.4z"/></g><g id="arm-l_8_"><path class="st0" d="M455.8 213.1c0 1.3-1 2.3-2.3 2.3-1.3 0-2.3-1-2.3-2.3l-.1-19.2c0-.2.1-.2.2-.2.2 0 .2 0 .9 3.1.4 1.6.9 3.8 1.5 6.6 1.1 4.7 2.1 9.6 2.1 9.7z"/><path class="st1" d="M451.3 193.8c0-1.2 4.3 19.2 4.3 19.2 0 1.2-1 2.1-2.1 2.1-1.2 0-2.1-1-2.1-2.1l-.1-19.2m-.3 0l.1 19.2c0 1.4 1.1 2.5 2.5 2.5s2.5-1.1 2.5-2.5c0 0-1-4.9-2.1-9.7-.6-2.8-1.1-5-1.5-6.6-.2-1-.4-1.7-.5-2.2-.1-.3-.1-.5-.2-.6-.1-.2-.1-.5-.4-.4-.2-.1-.4 0-.4.3z"/><path class="st2" d="M470.8 176.8h-19.5v17.1l19.5-17.1z"/><path class="st3" d="M470.8 193.8v-17.1l-19.5 17 19.5.1z"/></g><g id="arm-r_8_"><path class="st0" d="M439.5 214.5c-.1 0-4.2 2.7-8.3 5.4-2.4 1.5-4.3 2.8-5.7 3.7-2.7 1.7-2.8 1.7-2.9 1.5 0 0-.1-.1 0-.3l13.7-13.6c.9-.9 2.3-.9 3.2 0s.9 2.4 0 3.3z"/><path class="st1" d="M422.7 225l13.7-13.6c.8-.8 2.2-.8 3 0 .8.8.8 2.2 0 3 0 0-17.5 11.4-16.7 10.6m-.2-.3c-.2.2-.1.4-.1.5.2.2.4.1.6 0 .1-.1.3-.2.6-.3.4-.3 1.1-.7 1.9-1.2 1.4-.9 3.3-2.1 5.7-3.7 4.1-2.6 8.2-5.3 8.3-5.4 1-1 1-2.5 0-3.5s-2.5-1-3.5 0l-13.5 13.6z"/><path class="st2" d="M424.5 250.8L410.7 237l12.1-12.1 1.7 25.9z"/><path class="st3" d="M436.5 238.7l-12 12.1-1.7-25.8 13.7 13.7z"/></g><g id="body_7_"><circle class="st0" cx="545.6" cy="200.8" r="7.7"/><path class="st0" d="M553.3 251.3h-1.5l-6.2-19.2-6.2 19.2h-1.5v-40.4h15.4v40.4z"/></g><g id="arm-l_7_"><path class="st0" d="M554.8 214.6c-.9.9-2.3.9-3.2 0-.9-.9-.9-2.3 0-3.2l13.6-13.7c.1-.1.2-.1.3 0 .2.1.2.1-1.5 2.9-.9 1.4-2.1 3.3-3.7 5.7-2.7 4.1-5.4 8.2-5.5 8.3z"/><path class="st1" d="M565.3 197.8c.8-.8-10.6 16.7-10.6 16.7-.8.8-2.2.8-3 0s-.8-2.2 0-3l13.6-13.7m-.3-.2l-13.6 13.7c-1 1-1 2.5 0 3.5s2.5 1 3.5 0c0 0 2.7-4.2 5.4-8.3 1.5-2.4 2.8-4.3 3.7-5.7.5-.8.9-1.5 1.2-1.9.2-.2.2-.4.3-.6.1-.2.2-.4 0-.6-.1-.2-.3-.3-.5-.1z"/><path class="st2" d="M591.1 199.6l-13.7-13.8-12.1 12.1 25.8 1.7z"/><path class="st3" d="M579 211.6l12.1-12-25.8-1.7 13.7 13.7z"/></g><g id="arm-r_7_"><path class="st0" d="M539.3 214.6c-.1 0-4.2 2.7-8.3 5.4-2.4 1.5-4.3 2.8-5.7 3.7-2.7 1.7-2.8 1.7-2.9 1.5 0 0-.1-.1 0-.3l13.7-13.6c.9-.9 2.3-.9 3.2 0 .9 1 .9 2.4 0 3.3z"/><path class="st1" d="M522.6 225l13.7-13.6c.8-.8 2.2-.8 3 0 .8.8.8 2.2 0 3-.1.1-17.6 11.5-16.7 10.6m-.3-.2c-.2.2-.1.4-.1.5.2.2.4.1.6 0 .1-.1.3-.2.6-.3.4-.3 1.1-.7 1.9-1.2 1.4-.9 3.3-2.1 5.7-3.7 4.1-2.6 8.2-5.3 8.3-5.4 1-1 1-2.5 0-3.5s-2.5-1-3.5 0l-13.5 13.6z"/><path class="st2" d="M524.3 250.9l-13.8-13.7 12.1-12.1 1.7 25.8z"/><path class="st3" d="M536.3 238.8l-12 12.1-1.7-25.8 13.7 13.7z"/></g><g id="body_18_"><circle class="st0" cx="45.6" cy="338.8" r="7.7"/><path class="st0" d="M53.4 389.3h-1.5L45.6 370l-6.2 19.2h-1.5v-40.4h15.4v40.5z"/></g><g id="arm-l_18_"><path class="st0" d="M53.4 353.4c-1.3 0-2.3-1-2.3-2.3s1-2.3 2.3-2.3l19.2-.1c.2 0 .2.1.2.2 0 .2 0 .2-3.1.9-1.6.4-3.8.9-6.6 1.5-4.8 1-9.6 2.1-9.7 2.1z"/><path class="st1" d="M72.6 348.9c1.2 0-19.2 4.3-19.2 4.3-1.2 0-2.1-1-2.1-2.1 0-1.2 1-2.1 2.1-2.1l19.2-.1m0-.3l-19.2.1c-1.4 0-2.5 1.1-2.5 2.5s1.1 2.5 2.5 2.5h.1s4.9-1 9.7-2.1c2.8-.6 5-1.1 6.6-1.5 1-.2 1.7-.4 2.2-.5.3-.1.5-.1.6-.2.2-.1.5-.1.4-.4 0-.3-.1-.4-.4-.4z"/><path class="st2" d="M89.7 368.4v-19.5H72.6l17.1 19.5z"/><path class="st3" d="M72.6 368.3h17.1l-17-19.5-.1 19.5z"/></g><g id="arm-r_18_"><path class="st0" d="M39.6 352.7c-.1 0-4.2 2.7-8.3 5.4-2.4 1.5-4.3 2.8-5.7 3.7-2.7 1.7-2.8 1.7-2.9 1.5 0 0-.1-.1 0-.3l13.7-13.6c.9-.9 2.3-.9 3.2 0 .9.9.9 2.4 0 3.3z"/><path class="st1" d="M22.8 363.1l13.7-13.6c.8-.8 2.2-.8 3 0 .8.8.8 2.2 0 3 0 .1-17.5 11.4-16.7 10.6m-.2-.2c-.2.2-.1.4-.1.5.2.2.4.1.6 0 .1-.1.3-.2.6-.3.4-.3 1.1-.7 1.9-1.2 1.4-.9 3.3-2.1 5.7-3.7 4.1-2.6 8.2-5.3 8.3-5.4 1-1 1-2.5 0-3.5s-2.5-1-3.5 0l-13.5 13.6z"/><path class="st2" d="M24.6 388.9l-13.8-13.7 12.1-12.1 1.7 25.8z"/><path class="st3" d="M36.6 376.8l-12 12.1-1.7-25.8 13.7 13.7z"/></g><g id="body_17_"><circle class="st0" cx="145.6" cy="338.8" r="7.7"/><path class="st0" d="M153.3 389.3h-1.5l-6.2-19.2-6.2 19.2h-1.5v-40.4h15.4v40.4z"/></g><g id="arm-l_17_"><path class="st0" d="M151.8 352.9c-.9-.9-.9-2.3 0-3.2s2.3-.9 3.2 0l13.7 13.6c.1.1.1.2 0 .3-.1.2-.1.2-2.9-1.5-1.4-.9-3.3-2.1-5.7-3.7-4.1-2.8-8.2-5.5-8.3-5.5z"/><path class="st1" d="M168.6 363.3c.8.8-16.7-10.6-16.7-10.6-.8-.8-.8-2.2 0-3 .8-.8 2.2-.8 3 0l13.7 13.6m.2-.2l-13.7-13.6c-1-1-2.5-1-3.5 0s-1 2.5 0 3.5c0 0 4.2 2.7 8.3 5.4 2.4 1.5 4.3 2.8 5.7 3.7.8.5 1.5.9 1.9 1.2.2.2.4.2.6.3.2.1.4.2.6 0 .3-.1.3-.3.1-.5z"/><path class="st2" d="M166.9 389.2l13.8-13.7-12.1-12.1-1.7 25.8z"/><path class="st3" d="M154.8 377.1l12 12.1 1.7-25.8-13.7 13.7z"/></g><g id="arm-r_17_"><path class="st0" d="M139.3 352.6c-.1 0-4.2 2.7-8.3 5.4-2.4 1.5-4.3 2.8-5.7 3.7-2.7 1.7-2.8 1.7-2.9 1.5 0 0-.1-.1 0-.3l13.7-13.6c.9-.9 2.3-.9 3.2 0 1 .9 1 2.4 0 3.3z"/><path class="st1" d="M122.6 363l13.7-13.6c.8-.8 2.2-.8 3 0 .8.8.8 2.2 0 3-.1.1-17.5 11.4-16.7 10.6m-.2-.2c-.2.2-.1.4-.1.5.2.2.4.1.6 0 .1-.1.3-.2.6-.3.4-.3 1.1-.7 1.9-1.2 1.4-.9 3.3-2.1 5.7-3.7 4.1-2.6 8.2-5.3 8.3-5.4 1-1 1-2.5 0-3.5s-2.5-1-3.5 0l-13.5 13.6z"/><path class="st2" d="M124.3 388.8l-13.8-13.7 12.1-12.1 1.7 25.8z"/><path class="st3" d="M136.4 376.7l-12 12.1-1.7-25.8 13.7 13.7z"/></g><g id="body_16_"><circle class="st0" cx="245.6" cy="338.8" r="7.7"/><path class="st0" d="M253.3 389.3h-1.5l-6.2-19.2-6.2 19.2h-1.5v-40.4h15.4v40.4z"/></g><g id="arm-l_16_"><path class="st0" d="M250.2 352.9s-2.7-4.2-5.4-8.3c-1.5-2.4-2.8-4.3-3.7-5.7-1.7-2.7-1.7-2.7-1.5-2.9 0 0 .1-.1.3 0l13.6 13.7c.9.9.9 2.3 0 3.2s-2.4.9-3.3 0z"/><path class="st1" d="M239.8 336.1l13.6 13.7c.8.8.8 2.2 0 3-.8.8-2.2.8-3 0-.1 0-11.4-17.5-10.6-16.7m.2-.2c-.2-.2-.4-.1-.5 0-.2.2-.1.4 0 .6.1.1.2.3.3.6.3.5.7 1.1 1.2 1.9.9 1.4 2.1 3.3 3.7 5.7 2.6 4.1 5.3 8.2 5.4 8.3 1 1 2.5 1 3.5 0s1-2.5 0-3.5L240 335.9z"/><path class="st2" d="M239.8 336.1L227.7 324 214 337.8l25.8-1.7z"/><path class="st3" d="M239.8 336.1l-25.8 1.7 12.1 12 13.7-13.7z"/></g><g id="arm-r_16_"><path class="st0" d="M237.9 353.4c-.1 0-4.9-1-9.7-2.1-2.8-.6-5-1.1-6.6-1.5-3.1-.7-3.1-.8-3.1-.9 0 0 0-.2.2-.2l19.2.1c1.3 0 2.3 1 2.3 2.3s-1 2.3-2.3 2.3z"/><path class="st1" d="M218.7 348.9l19.2.1c1.2 0 2.1 1 2.1 2.1 0 1.2-1 2.1-2.1 2.1 0 0-20.4-4.3-19.2-4.3m0-.3c-.3 0-.4.2-.4.3 0 .3.2.4.4.4.1 0 .3.1.6.2.5.1 1.2.3 2.2.5 1.6.4 3.8.9 6.6 1.5 4.8 1 9.6 2.1 9.7 2.1h.1c1.4 0 2.5-1.1 2.5-2.5s-1.1-2.5-2.5-2.5h-19.2z"/><path class="st2" d="M201.6 368.4v-19.5h17.1l-17.1 19.5z"/><path class="st3" d="M218.7 368.3h-17.1l17-19.5.1 19.5z"/></g><g id="body_15_"><circle class="st0" cx="345.6" cy="338.8" r="7.7"/><path class="st0" d="M353.3 389.3h-1.5l-6.2-19.2-6.2 19.2h-1.5v-40.4h15.4v40.4z"/></g><g id="arm-l_15_"><path class="st0" d="M356.1 350.8c0 1.3-1 2.3-2.3 2.3-1.3 0-2.3-1-2.3-2.3l-.1-19.2c0-.2.1-.2.2-.2.2 0 .2 0 .9 3.1.4 1.6.9 3.8 1.5 6.6 1 4.8 2 9.6 2.1 9.7z"/><path class="st1" d="M351.6 331.6c0-1.2 4.3 19.2 4.3 19.2 0 1.2-1 2.1-2.1 2.1-1.2 0-2.1-1-2.1-2.1l-.1-19.2m-.3 0l.1 19.2c0 1.4 1.1 2.5 2.5 2.5s2.5-1.1 2.5-2.5v-.1s-1-4.9-2.1-9.7c-.6-2.8-1.1-5-1.5-6.6-.2-1-.4-1.7-.5-2.2-.1-.3-.1-.5-.2-.6-.1-.2-.1-.5-.4-.4-.3 0-.4.1-.4.4z"/><path class="st2" d="M371.1 314.5h-19.5v17.1l19.5-17.1z"/><path class="st3" d="M371 331.6v-17.1l-19.5 17 19.5.1z"/></g><g id="arm-r_15_"><path class="st0" d="M337.9 353.4c-.1 0-4.9-1-9.7-2.1-2.8-.6-5-1.1-6.6-1.5-3.1-.7-3.1-.8-3.1-.9 0 0 0-.2.2-.2l19.2.1c1.3 0 2.3 1 2.3 2.3s-1 2.3-2.3 2.3z"/><path class="st1" d="M318.7 348.9l19.2.1c1.2 0 2.1 1 2.1 2.1 0 1.2-1 2.1-2.1 2.1 0 0-20.4-4.3-19.2-4.3m0-.3c-.3 0-.4.2-.4.3 0 .3.2.4.4.4.1 0 .3.1.6.2.5.1 1.2.3 2.2.5 1.6.4 3.8.9 6.6 1.5 4.8 1 9.6 2.1 9.7 2.1h.1c1.4 0 2.5-1.1 2.5-2.5s-1.1-2.5-2.5-2.5h-19.2z"/><path class="st2" d="M301.6 368.4v-19.5h17.1l-17.1 19.5z"/><path class="st3" d="M318.7 368.3h-17.1l17-19.5.1 19.5z"/></g><g id="body_14_"><circle class="st0" cx="445.6" cy="338.8" r="7.7"/><path class="st0" d="M453.3 389.3h-1.5l-6.2-19.2-6.2 19.2h-1.5v-40.4h15.4v40.4z"/></g><g id="arm-l_14_"><path class="st0" d="M455 352.5c-.9.9-2.3.9-3.2 0s-.9-2.3 0-3.2l13.6-13.7c.1-.1.2-.1.3 0 .2.1.2.1-1.5 2.9-.9 1.4-2.1 3.3-3.7 5.7-2.8 4.1-5.4 8.3-5.5 8.3z"/><path class="st1" d="M465.4 335.8c.8-.8-10.6 16.7-10.6 16.7-.8.8-2.2.8-3 0-.8-.8-.8-2.2 0-3l13.6-13.7m-.2-.3l-13.6 13.7c-1 1-1 2.5 0 3.5s2.5 1 3.5 0c0 0 2.7-4.2 5.4-8.3 1.5-2.4 2.8-4.3 3.7-5.7.5-.8.9-1.5 1.2-1.9.2-.2.2-.4.3-.6.1-.2.2-.4 0-.6-.1-.2-.3-.3-.5-.1z"/><path class="st2" d="M491.3 337.5l-13.7-13.8-12.1 12.1 25.8 1.7z"/><path class="st3" d="M479.2 349.5l12.1-12-25.8-1.7 13.7 13.7z"/></g><g id="arm-r_14_"><path class="st0" d="M437.9 353.4c-.1 0-4.9-1-9.7-2.1-2.8-.6-5-1.1-6.6-1.5-3.1-.7-3.1-.8-3.1-.9 0 0 0-.2.2-.2l19.2.1c1.3 0 2.3 1 2.3 2.3s-1 2.3-2.3 2.3z"/><path class="st1" d="M418.7 348.9l19.2.1c1.2 0 2.1 1 2.1 2.1 0 1.2-1 2.1-2.1 2.1 0 0-20.4-4.3-19.2-4.3m0-.3c-.3 0-.4.2-.4.3 0 .3.2.4.4.4.1 0 .3.1.6.2.5.1 1.2.3 2.2.5 1.6.4 3.8.9 6.6 1.5 4.8 1 9.6 2.1 9.7 2.1h.1c1.4 0 2.5-1.1 2.5-2.5s-1.1-2.5-2.5-2.5h-19.2z"/><path class="st2" d="M401.6 368.4v-19.5h17.1l-17.1 19.5z"/><path class="st3" d="M418.7 368.3h-17.1l17-19.5.1 19.5z"/></g><g id="body_13_"><circle class="st0" cx="545.6" cy="338.8" r="7.7"/><path class="st0" d="M553.3 389.3h-1.5l-6.2-19.2-6.2 19.2h-1.5v-40.4h15.4v40.4z"/></g><g id="arm-l_13_"><path class="st0" d="M553.4 353.4c-1.3 0-2.3-1-2.3-2.3s1-2.3 2.3-2.3l19.2-.1c.2 0 .2.1.2.2 0 .2 0 .2-3.1.9-1.6.4-3.8.9-6.6 1.5-4.8 1-9.6 2.1-9.7 2.1z"/><path class="st1" d="M572.6 348.9c1.2 0-19.2 4.3-19.2 4.3-1.2 0-2.1-1-2.1-2.1 0-1.2 1-2.1 2.1-2.1l19.2-.1m0-.3l-19.2.1c-1.4 0-2.5 1.1-2.5 2.5s1.1 2.5 2.5 2.5h.1s4.9-1 9.7-2.1c2.8-.6 5-1.1 6.6-1.5 1-.2 1.7-.4 2.2-.5.3-.1.5-.1.6-.2.2-.1.5-.1.4-.4 0-.3-.1-.4-.4-.4z"/><path class="st2" d="M589.7 368.4v-19.5h-17.1l17.1 19.5z"/><path class="st3" d="M572.6 368.3h17.1l-17-19.5-.1 19.5z"/></g><g id="arm-r_13_"><path class="st0" d="M537.9 353.4c-.1 0-4.9-1-9.7-2.1-2.8-.6-5-1.1-6.6-1.5-3.1-.7-3.1-.8-3.1-.9 0 0 0-.2.2-.2l19.2.1c1.3 0 2.3 1 2.3 2.3s-1 2.3-2.3 2.3z"/><path class="st1" d="M518.7 348.9l19.2.1c1.2 0 2.1 1 2.1 2.1 0 1.2-1 2.1-2.1 2.1 0 0-20.4-4.3-19.2-4.3m0-.3c-.3 0-.4.2-.4.3 0 .3.2.4.4.4.1 0 .3.1.6.2.5.1 1.2.3 2.2.5 1.6.4 3.8.9 6.6 1.5 4.8 1 9.6 2.1 9.7 2.1h.1c1.4 0 2.5-1.1 2.5-2.5s-1.1-2.5-2.5-2.5h-19.2z"/><path class="st2" d="M501.6 368.4v-19.5h17.1l-17.1 19.5z"/><path class="st3" d="M518.7 368.3h-17.1l17-19.5.1 19.5z"/></g><g id="body_24_"><circle class="st0" cx="45.6" cy="476.8" r="7.7"/><path class="st0" d="M53.4 527.3h-1.5L45.6 508l-6.2 19.2h-1.5v-40.4h15.4v40.5z"/></g><g id="arm-l_24_"><path class="st0" d="M51.7 490.8c-.9-.9-.9-2.3 0-3.2.9-.9 2.3-.9 3.2 0l13.7 13.6c.1.1.1.2 0 .3-.1.2-.1.2-2.9-1.5-1.4-.9-3.3-2.1-5.7-3.7-4.1-2.7-8.3-5.4-8.3-5.5z"/><path class="st1" d="M68.4 501.3c.8.8-16.7-10.6-16.7-10.6-.8-.8-.8-2.2 0-3 .8-.8 2.2-.8 3 0l13.7 13.6m.3-.3L55 487.5c-1-1-2.5-1-3.5 0s-1 2.5 0 3.5c0 0 4.2 2.7 8.3 5.4 2.4 1.5 4.3 2.8 5.7 3.7.8.5 1.5.9 1.9 1.2.2.2.4.2.6.3.2.1.4.2.6 0 .2-.2.3-.4.1-.6z"/><path class="st2" d="M66.7 527.1l13.8-13.7-12.1-12.1-1.7 25.8z"/><path class="st3" d="M54.7 515l12 12.1 1.7-25.8L54.7 515z"/></g><g id="arm-r_24_"><path class="st0" d="M37.9 491.4c-.1 0-4.9-1-9.7-2.1-2.8-.6-5-1.1-6.6-1.5-3.1-.7-3.1-.8-3.1-.9 0 0 0-.2.2-.2l19.2.1c1.3 0 2.3 1 2.3 2.3s-1 2.3-2.3 2.3z"/><path class="st1" d="M18.7 486.9l19.2.1c1.2 0 2.1 1 2.1 2.1 0 1.2-1 2.1-2.1 2.1 0 0-20.4-4.3-19.2-4.3m0-.3c-.3 0-.4.2-.4.3 0 .3.2.4.4.4.1 0 .3.1.6.2.5.1 1.2.3 2.2.5 1.6.4 3.8.9 6.6 1.5 4.8 1 9.6 2.1 9.7 2.1h.1c1.4 0 2.5-1.1 2.5-2.5s-1.1-2.5-2.5-2.5H18.7z"/><path class="st2" d="M1.7 506.4v-19.5h17.1L1.7 506.4z"/><path class="st3" d="M18.7 506.3H1.6l17-19.5.1 19.5z"/></g><g id="body_23_"><circle class="st0" cx="145.6" cy="476.8" r="7.7"/><path class="st0" d="M153.3 527.3h-1.5l-6.2-19.2-6.2 19.2h-1.5v-40.4h15.4v40.4z"/></g><g id="arm-l_23_"><path class="st0" d="M156.3 489c0 1.3-1 2.3-2.3 2.3s-2.3-1-2.3-2.3l-.1-19.2c0-.2.1-.2.2-.2.2 0 .2 0 .9 3.1.4 1.6.9 3.8 1.5 6.6 1.1 4.8 2.1 9.7 2.1 9.7z"/><path class="st1" d="M151.8 469.8c0-1.2 4.3 19.2 4.3 19.2 0 1.2-1 2.1-2.1 2.1-1.2 0-2.1-1-2.1-2.1l-.1-19.2m-.3 0l.1 19.2c0 1.4 1.1 2.5 2.5 2.5s2.5-1.1 2.5-2.5c0 0-1-4.9-2.1-9.7-.6-2.8-1.1-5-1.5-6.6-.2-1-.4-1.7-.5-2.2-.1-.3-.1-.5-.2-.6-.1-.2-.1-.5-.4-.4-.2-.1-.4 0-.4.3z"/><path class="st2" d="M171.3 452.8h-19.5v17.1l19.5-17.1z"/><path class="st3" d="M171.3 469.8v-17.1l-19.5 17 19.5.1z"/></g><g id="arm-r_23_"><path class="st0" d="M136.2 490.8c0-.1-2.7-4.2-5.4-8.3-1.5-2.4-2.8-4.3-3.7-5.7-1.7-2.7-1.7-2.8-1.5-2.9 0 0 .1-.1.3 0l13.6 13.7c.9.9.9 2.3 0 3.2s-2.4.9-3.3 0z"/><path class="st1" d="M125.7 474.1l13.6 13.7c.8.8.8 2.2 0 3-.8.8-2.2.8-3 0 0-.1-11.4-17.6-10.6-16.7m.3-.3c-.2-.2-.4-.1-.5-.1-.2.2-.1.4 0 .6.1.1.2.3.3.6.3.4.7 1.1 1.2 1.9.9 1.4 2.1 3.3 3.7 5.7 2.6 4.1 5.3 8.2 5.4 8.3 1 1 2.5 1 3.5 0s1-2.5 0-3.5L126 473.8z"/><path class="st2" d="M99.9 475.8l13.7-13.8 12.1 12.1-25.8 1.7z"/><path class="st3" d="M112 487.8l-12.1-12 25.8-1.7-13.7 13.7z"/></g><g id="body_22_"><circle class="st0" cx="245.6" cy="476.8" r="7.7"/><path class="st0" d="M253.3 527.3h-1.5l-6.2-19.2-6.2 19.2h-1.5v-40.4h15.4v40.4z"/></g><g id="arm-l_22_"><path class="st0" d="M255 490.5c-.9.9-2.3.9-3.2 0s-.9-2.3 0-3.2l13.6-13.7c.1-.1.2-.1.3 0 .2.1.2.1-1.5 2.9-.9 1.4-2.1 3.3-3.7 5.7-2.7 4.1-5.4 8.3-5.5 8.3z"/><path class="st1" d="M265.5 473.8c.8-.8-10.6 16.7-10.6 16.7-.8.8-2.2.8-3 0-.8-.8-.8-2.2 0-3l13.6-13.7m-.3-.3l-13.6 13.7c-1 1-1 2.5 0 3.5s2.5 1 3.5 0c0 0 2.7-4.2 5.4-8.3 1.5-2.4 2.8-4.3 3.7-5.7.5-.8.9-1.5 1.2-1.9.2-.2.2-.4.3-.6.1-.2.2-.4 0-.6-.1-.2-.3-.3-.5-.1z"/><path class="st2" d="M291.3 475.5l-13.7-13.8-12.1 12.1 25.8 1.7z"/><path class="st3" d="M279.2 487.5l12.1-12-25.8-1.7 13.7 13.7z"/></g><g id="arm-r_22_"><path class="st0" d="M236.2 490.7c0-.1-2.7-4.2-5.4-8.3-1.5-2.4-2.8-4.3-3.7-5.7-1.7-2.7-1.7-2.8-1.5-2.9 0 0 .1-.1.3 0l13.6 13.7c.9.9.9 2.3 0 3.2-.9.9-2.4.9-3.3 0z"/><path class="st1" d="M225.8 473.9l13.6 13.7c.8.8.8 2.2 0 3s-2.2.8-3 0c0 0-11.4-17.5-10.6-16.7m.2-.2c-.2-.2-.4-.1-.5-.1-.2.2-.1.4 0 .6.1.1.2.3.3.6.3.4.7 1.1 1.2 1.9.9 1.4 2.1 3.3 3.7 5.7 2.6 4.1 5.3 8.2 5.4 8.3 1 1 2.5 1 3.5 0s1-2.5 0-3.5L226 473.7z"/><path class="st2" d="M200 475.6l13.7-13.8 12.1 12.1-25.8 1.7z"/><path class="st3" d="M212.1 487.7l-12.1-12 25.8-1.7-13.7 13.7z"/></g><g id="body_21_"><circle class="st0" cx="345.6" cy="476.8" r="7.7"/><path class="st0" d="M353.3 527.3h-1.5l-6.2-19.2-6.2 19.2h-1.5v-40.4h15.4v40.4z"/></g><g id="arm-l_21_"><path class="st0" d="M351.9 490.7c-.9-.9-.9-2.3 0-3.2s2.3-.9 3.2 0l13.7 13.6c.1.1.1.2 0 .3-.1.2-.1.2-2.9-1.5-1.4-.9-3.3-2.1-5.7-3.7-4.1-2.7-8.2-5.4-8.3-5.5z"/><path class="st1" d="M368.7 501.2c.8.8-16.7-10.6-16.7-10.6-.8-.8-.8-2.2 0-3 .8-.8 2.2-.8 3 0l13.7 13.6m.2-.3l-13.7-13.6c-1-1-2.5-1-3.5 0s-1 2.5 0 3.5c0 0 4.2 2.7 8.3 5.4 2.4 1.5 4.3 2.8 5.7 3.7.8.5 1.5.9 1.9 1.2.2.2.4.2.6.3.2.1.4.2.6 0 .2-.1.3-.3.1-.5z"/><path class="st2" d="M367 527l13.8-13.7-12.1-12.1L367 527z"/><path class="st3" d="M354.9 514.9l12 12.1 1.7-25.8-13.7 13.7z"/></g><g id="arm-r_21_"><path class="st0" d="M335.6 489c0-.1 1-4.9 2.1-9.7.6-2.8 1.1-5 1.5-6.6.7-3.1.8-3.1.9-3.1 0 0 .2 0 .2.2l-.1 19.2c0 1.3-1 2.3-2.3 2.3s-2.3-1.1-2.3-2.3z"/><path class="st1" d="M340 469.7V489c0 1.2-1 2.1-2.1 2.1s-2.1-1-2.1-2.1c-.1 0 4.2-20.4 4.2-19.3m.4 0c0-.3-.2-.4-.3-.4-.3 0-.4.2-.4.4 0 .1-.1.3-.2.6-.1.5-.3 1.2-.5 2.2-.4 1.6-.9 3.8-1.5 6.6-1 4.8-2.1 9.6-2.1 9.7v.1c0 1.4 1.1 2.5 2.5 2.5s2.5-1.1 2.5-2.5v-19.2z"/><path class="st2" d="M320.6 452.7h19.5v17.1l-19.5-17.1z"/><path class="st3" d="M320.6 469.8v-17.1l19.5 17-19.5.1z"/></g><g id="body_20_"><circle class="st0" cx="445.6" cy="476.8" r="7.7"/><path class="st0" d="M453.3 527.3h-1.5l-6.2-19.2-6.2 19.2h-1.5v-40.4h15.4v40.4z"/></g><g id="arm-l_20_"><path class="st0" d="M453.4 491.4c-1.3 0-2.3-1-2.3-2.3s1-2.3 2.3-2.3l19.2-.1c.2 0 .2.1.2.2 0 .2 0 .2-3.1.9-1.6.4-3.8.9-6.6 1.5-4.8 1-9.6 2.1-9.7 2.1z"/><path class="st1" d="M472.6 486.9c1.2 0-19.2 4.3-19.2 4.3-1.2 0-2.1-1-2.1-2.1 0-1.2 1-2.1 2.1-2.1l19.2-.1m0-.3l-19.2.1c-1.4 0-2.5 1.1-2.5 2.5s1.1 2.5 2.5 2.5h.1s4.9-1 9.7-2.1c2.8-.6 5-1.1 6.6-1.5 1-.2 1.7-.4 2.2-.5.3-.1.5-.1.6-.2.2-.1.5-.1.4-.4 0-.3-.1-.4-.4-.4z"/><path class="st2" d="M489.7 506.4v-19.5h-17.1l17.1 19.5z"/><path class="st3" d="M472.6 506.3h17.1l-17-19.5-.1 19.5z"/></g><g id="arm-r_20_"><path class="st0" d="M439.8 490.7c-.9.9-2.3.9-3.2 0s-.9-2.3 0-3.2l13.6-13.7c.1-.1.2-.1.3 0 .1.1.2.1-1.5 2.9-.9 1.4-2.1 3.3-3.7 5.7-2.8 4.1-5.5 8.2-5.5 8.3z"/><path class="st1" d="M450.2 473.9c.8-.8-10.6 16.7-10.6 16.7-.8.8-2.2.8-3 0-.8-.8-.8-2.2 0-3l13.6-13.7m-13.8 13.4c-1 1-1 2.5 0 3.5s2.5 1 3.5 0c0 0 2.7-4.2 5.4-8.3 1.5-2.4 2.8-4.3 3.7-5.7.5-.8.9-1.5 1.2-1.9.2-.2.3-.4.3-.6.1-.2.2-.4 0-.6-.1-.1-.3-.1-.5.1l-13.6 13.5z"/><path class="st2" d="M450.2 473.9l12.1-12.1 13.7 13.8-25.8-1.7z"/><path class="st3" d="M450.2 473.9l25.8 1.7-12.1 12-13.7-13.7z"/></g><g id="body_19_"><circle class="st0" cx="545.6" cy="476.8" r="7.7"/><path class="st0" d="M553.3 527.3h-1.5l-6.2-19.2-6.2 19.2h-1.5v-40.4h15.4v40.4z"/></g><g id="arm-l_19_"><path class="st0" d="M551.6 490.8c-.9-.9-.9-2.3 0-3.2.9-.9 2.3-.9 3.2 0l13.7 13.6c.1.1.1.2 0 .3-.1.2-.1.2-2.9-1.5-1.4-.9-3.3-2.1-5.7-3.7-4.1-2.7-8.2-5.4-8.3-5.5z"/><path class="st1" d="M568.4 501.3c.8.8-16.7-10.6-16.7-10.6-.8-.8-.8-2.2 0-3 .8-.8 2.2-.8 3 0l13.7 13.6m.3-.3L555 487.5c-1-1-2.5-1-3.5 0s-1 2.5 0 3.5c0 0 4.2 2.7 8.3 5.4 2.4 1.5 4.3 2.8 5.7 3.7.8.5 1.5.9 1.9 1.2.2.2.4.2.6.3.2.1.4.2.6 0 .2-.2.2-.4.1-.6z"/><path class="st2" d="M566.7 527.1l13.8-13.7-12.1-12.1-1.7 25.8z"/><path class="st3" d="M554.6 515l12 12.1 1.7-25.8-13.7 13.7z"/></g><g id="arm-r_19_"><path class="st0" d="M539.9 490.8c-.9.9-2.3.9-3.2 0s-.9-2.3 0-3.2l13.6-13.7c.1-.1.2-.1.3 0 .1.1.2.1-1.5 2.9-.9 1.4-2.1 3.3-3.7 5.7-2.7 4.1-5.4 8.2-5.5 8.3z"/><path class="st1" d="M550.4 474c.8-.8-10.6 16.7-10.6 16.7-.8.8-2.2.8-3 0-.8-.8-.8-2.2 0-3l13.6-13.7m-13.9 13.4c-1 1-1 2.5 0 3.5s2.5 1 3.5 0c0 0 2.7-4.2 5.4-8.3 1.5-2.4 2.8-4.3 3.7-5.7.5-.8.9-1.5 1.2-1.9.2-.2.3-.4.3-.6.1-.2.2-.4 0-.6-.1-.1-.3-.1-.5.1l-13.6 13.5z"/><path class="st2" d="M550.4 474l12.1-12.1 13.7 13.8-25.8-1.7z"/><path class="st3" d="M550.4 474l25.8 1.7-12.1 12-13.7-13.7z"/></g><g id="body_30_"><circle class="st0" cx="45.6" cy="614.8" r="7.7"/><path class="st0" d="M53.4 665.3h-1.5L45.6 646l-6.2 19.2h-1.5v-40.4h15.4v40.5z"/></g><g id="arm-l_30_"><path class="st0" d="M53.4 629.4c-1.3 0-2.3-1-2.3-2.3 0-1.3 1-2.3 2.3-2.3l19.2-.1c.2 0 .2.1.2.2 0 .2 0 .2-3.1.9-1.6.4-3.8.9-6.6 1.5-4.8 1-9.6 2.1-9.7 2.1z"/><path class="st1" d="M72.6 624.9c1.2 0-19.2 4.3-19.2 4.3-1.2 0-2.1-1-2.1-2.1 0-1.2 1-2.1 2.1-2.1l19.2-.1m0-.3l-19.2.1c-1.4 0-2.5 1.1-2.5 2.5s1.1 2.5 2.5 2.5h.1s4.9-1 9.7-2.1c2.8-.6 5-1.1 6.6-1.5 1-.2 1.7-.4 2.2-.5.3-.1.5-.1.6-.2.2-.1.5-.1.4-.4 0-.3-.1-.4-.4-.4z"/><path class="st2" d="M89.7 644.4v-19.5H72.6l17.1 19.5z"/><path class="st3" d="M72.6 644.3h17.1l-17-19.5-.1 19.5z"/></g><g id="arm-r_30_"><path class="st0" d="M36.2 628.7c0-.1-2.7-4.2-5.4-8.3-1.5-2.4-2.8-4.3-3.7-5.7-1.7-2.7-1.7-2.8-1.5-2.9 0 0 .1-.1.3 0l13.6 13.7c.9.9.9 2.3 0 3.2-.9.9-2.3.9-3.3 0z"/><path class="st1" d="M25.8 611.9l13.6 13.7c.8.8.8 2.2 0 3-.8.8-2.2.8-3 0 0 0-11.4-17.5-10.6-16.7m.2-.2c-.2-.2-.4-.1-.5-.1-.2.2-.1.4 0 .6.1.1.2.3.3.6.3.4.7 1.1 1.2 1.9.9 1.4 2.1 3.3 3.7 5.7 2.6 4.1 5.3 8.2 5.4 8.3 1 1 2.5 1 3.5 0s1-2.5 0-3.5L26 611.7z"/><path class="st2" d="M0 613.6l13.7-13.8 12.1 12.1L0 613.6z"/><path class="st3" d="M12.1 625.7L0 613.6l25.8-1.7-13.7 13.8z"/></g><g id="body_29_"><circle class="st0" cx="145.6" cy="614.8" r="7.7"/><path class="st0" d="M153.3 665.3h-1.5l-6.2-19.2-6.2 19.2h-1.5v-40.4h15.4v40.4z"/></g><g id="arm-l_29_"><path class="st0" d="M153.4 629.4c-1.3 0-2.3-1-2.3-2.3 0-1.3 1-2.3 2.3-2.3l19.2-.1c.2 0 .2.1.2.2 0 .2 0 .2-3.1.9-1.6.4-3.8.9-6.6 1.5-4.8 1-9.6 2.1-9.7 2.1z"/><path class="st1" d="M172.6 624.9c1.2 0-19.2 4.3-19.2 4.3-1.2 0-2.1-1-2.1-2.1 0-1.2 1-2.1 2.1-2.1l19.2-.1m0-.3l-19.2.1c-1.4 0-2.5 1.1-2.5 2.5s1.1 2.5 2.5 2.5h.1s4.9-1 9.7-2.1c2.8-.6 5-1.1 6.6-1.5 1-.2 1.7-.4 2.2-.5.3-.1.5-.1.6-.2.2-.1.5-.1.4-.4 0-.3-.1-.4-.4-.4z"/><path class="st2" d="M189.7 644.4v-19.5h-17.1l17.1 19.5z"/><path class="st3" d="M172.6 644.3h17.1l-17-19.5-.1 19.5z"/></g><g id="arm-r_29_"><path class="st0" d="M136.1 628.8c-.9-.9-.9-2.3 0-3.2.9-.9 2.3-.9 3.2 0l13.7 13.6c.1.1.1.2 0 .3-.1.1-.1.2-2.9-1.5-1.4-.9-3.3-2.1-5.7-3.7-4.1-2.8-8.2-5.5-8.3-5.5z"/><path class="st1" d="M152.9 639.2c.8.8-16.7-10.6-16.7-10.6-.8-.8-.8-2.2 0-3 .8-.8 2.2-.8 3 0l13.7 13.6m-13.4-13.8c-1-1-2.5-1-3.5 0s-1 2.5 0 3.5c0 0 4.2 2.7 8.3 5.4 2.4 1.5 4.3 2.8 5.7 3.7.8.5 1.5.9 1.9 1.2.2.2.4.3.6.3.2.1.4.2.6 0 .1-.1.1-.3-.1-.5l-13.5-13.6z"/><path class="st2" d="M152.9 639.2l12.1 12.1-13.8 13.7 1.7-25.8z"/><path class="st3" d="M152.9 639.2l-1.7 25.8-12-12.1 13.7-13.7z"/></g><g id="body_28_"><circle class="st0" cx="245.6" cy="614.8" r="7.7"/><path class="st0" d="M253.3 665.3h-1.5l-6.2-19.2-6.2 19.2h-1.5v-40.4h15.4v40.4z"/></g><g id="arm-l_28_"><path class="st0" d="M254.4 628.7s-4.2 2.7-8.3 5.4c-2.4 1.5-4.3 2.8-5.7 3.7-2.7 1.7-2.7 1.7-2.9 1.5 0 0-.1-.1 0-.3l13.7-13.6c.9-.9 2.3-.9 3.2 0 .9.9.9 2.4 0 3.3z"/><path class="st1" d="M237.6 639.1l13.7-13.6c.8-.8 2.2-.8 3 0s.8 2.2 0 3c0 .1-17.5 11.4-16.7 10.6m-.2-.2c-.2.2-.1.4 0 .5.2.2.4.1.6 0 .1-.1.3-.2.6-.3.5-.3 1.1-.7 1.9-1.2 1.4-.9 3.3-2.1 5.7-3.7 4.1-2.6 8.2-5.3 8.3-5.4 1-1 1-2.5 0-3.5s-2.5-1-3.5 0l-13.6 13.6z"/><path class="st2" d="M237.6 639.1l-12.1 12.1 13.8 13.7-1.7-25.8z"/><path class="st3" d="M237.6 639.1l1.7 25.8 12-12.1-13.7-13.7z"/></g><g id="arm-r_28_"><path class="st0" d="M236.3 628.8c-.9-.9-.9-2.3 0-3.2s2.3-.9 3.2 0l13.7 13.6c.1.1.1.2 0 .3-.1.1-.1.2-2.9-1.5-1.4-.9-3.3-2.1-5.7-3.7-4.1-2.7-8.3-5.4-8.3-5.5z"/><path class="st1" d="M253.1 639.3c.8.8-16.7-10.6-16.7-10.6-.8-.8-.8-2.2 0-3 .8-.8 2.2-.8 3 0l13.7 13.6m-13.5-13.8c-1-1-2.5-1-3.5 0s-1 2.5 0 3.5c0 0 4.2 2.7 8.3 5.4 2.4 1.5 4.3 2.8 5.7 3.7.8.5 1.5.9 1.9 1.2.2.2.4.3.6.3.2.1.4.2.6 0 .1-.1.1-.3-.1-.5l-13.5-13.6z"/><path class="st2" d="M253.1 639.3l12.1 12.1-13.8 13.7 1.7-25.8z"/><path class="st3" d="M253.1 639.3l-1.7 25.8-12-12.1 13.7-13.7z"/></g><path class="st4" d="M18.2 134h53v19h-53z"/><text transform="translate(27.57 149.818)" class="st5 st6">A/1</text><path class="st4" d="M118.2 134h53v19h-53z"/><text transform="translate(127.57 149.818)" class="st5 st6">B/2</text><path class="st4" d="M218.2 134h53v19h-53z"/><text transform="translate(227.57 149.818)" class="st5 st6">C/3</text><path class="st4" d="M319.2 134h53v19h-53z"/><text transform="translate(328.57 149.818)" class="st5 st6">D/4</text><path class="st4" d="M418.2 134h53v19h-53z"/><text transform="translate(428.176 149.818)" class="st5 st6">E/5</text><path class="st4" d="M518.2 134h53v19h-53z"/><text transform="translate(528.794 149.818)" class="st5 st6">F/6</text><path class="st4" d="M19.1 267h53v19h-53z"/><text transform="translate(27.914 282.818)" class="st5 st6">G/7</text><path class="st4" d="M117.7 267h53v19h-53z"/><text transform="translate(127.132 282.818)" class="st5 st6">H/8</text><path class="st4" d="M217.9 267h53v19h-53z"/><text transform="translate(232.193 282.818)" class="st5 st6">I/9</text><path class="st4" d="M319.3 267h53v19h-53z"/><text transform="translate(339.69 282.818)" class="st5 st6">J</text><path class="st4" d="M419.1 267h53v19h-53z"/><text transform="translate(428.507 282.818)" class="st5 st6">K/0</text><path class="st4" d="M518.2 267h53v19h-53z"/><text transform="translate(537.968 282.818)" class="st5 st6">L</text><path class="st4" d="M18.2 405h53v19h-53z"/><text transform="translate(35.524 420.818)" class="st5 st6">M</text><path class="st4" d="M117.7 405h53v19h-53z"/><text transform="translate(136.306 420.818)" class="st5 st6">N</text><path class="st4" d="M217.9 405h53v19h-53z"/><text transform="translate(235.867 420.818)" class="st5 st6">O</text><path class="st4" d="M319.2 405h53v19h-53z"/><text transform="translate(338.35 420.818)" class="st5 st6">P</text><path class="st4" d="M418.2 405h53v19h-53z"/><text transform="translate(436.13 420.818)" class="st5 st6">Q</text><path class="st4" d="M516.8 405h53v19h-53z"/><text transform="translate(535.34 420.818)" class="st5 st6">R</text><path class="st4" d="M18.2 542h53v19h-53z"/><text transform="translate(37.35 557.818)" class="st5 st6">S</text><path class="st4" d="M117.7 542h53v19h-53z"/><text transform="translate(137.53 557.818)" class="st5 st6">T</text><path class="st4" d="M218.2 542h53v19h-53z"/><text transform="translate(236.743 557.818)" class="st5 st6">U</text><path class="st4" d="M319.3 542h53v19h-53z"/><text transform="translate(338.47 557.818)" class="st5 st6">V</text><path class="st4" d="M418.2 542h53v19h-53z"/><text transform="translate(434.305 557.818)" class="st5 st6">W</text><path class="st4" d="M516.8 542h53v19h-53z"/><text transform="translate(535.946 557.818)" class="st5 st6">X</text><path class="st4" d="M18.2 680h53v19h-53z"/><text transform="translate(37.35 695.818)" class="st5 st6">Y</text><path class="st4" d="M118.2 680h53v19h-53z"/><text transform="translate(137.968 695.818)" class="st5 st6">Z</text><path class="st4" d="M201.7 680h86v19h-86z"/><text transform="translate(212.278 695.818)" class="st5 st6">Space</text></svg>
